<svg xmlns="http://www.w3.org/2000/svg" xmlns:xlink="http://www.w3.org/1999/xlink" width="500" zoomAndPan="magnify" viewBox="0 0 375 374.999991" height="500" preserveAspectRatio="xMidYMid meet" version="1.0"><defs><g/></defs><g fill="#ffffff" fill-opacity="1"><g transform="translate(67.738615, 202.878181)"><g><path d="M 25.171875 -18.4375 L 32.75 -18.4375 L 32.75 -17.90625 L 32.484375 -17.90625 C 32.203125 -17.90625 31.953125 -17.804688 31.734375 -17.609375 C 31.523438 -17.421875 31.347656 -17.1875 31.203125 -16.90625 C 31.066406 -16.625 30.953125 -16.320312 30.859375 -16 C 30.773438 -15.6875 30.734375 -15.40625 30.734375 -15.15625 L 30.734375 -0.953125 C 30.097656 -0.703125 29.375 -0.488281 28.5625 -0.3125 C 27.75 -0.132812 26.898438 0.0078125 26.015625 0.125 C 25.140625 0.25 24.238281 0.347656 23.3125 0.421875 C 22.394531 0.492188 21.550781 0.53125 20.78125 0.53125 C 17.59375 0.53125 14.816406 0 12.453125 -1.0625 C 10.085938 -2.125 8.125 -3.507812 6.5625 -5.21875 C 5.007812 -6.9375 3.851562 -8.867188 3.09375 -11.015625 C 2.34375 -13.171875 1.96875 -15.347656 1.96875 -17.546875 C 1.96875 -19.734375 2.34375 -21.90625 3.09375 -24.0625 C 3.851562 -26.21875 5.019531 -28.144531 6.59375 -29.84375 C 8.164062 -31.539062 10.144531 -32.910156 12.53125 -33.953125 C 14.914062 -34.992188 17.753906 -35.515625 21.046875 -35.515625 C 22.273438 -35.515625 23.421875 -35.40625 24.484375 -35.1875 C 25.546875 -34.976562 26.484375 -34.785156 27.296875 -34.609375 C 27.753906 -34.503906 28.148438 -34.40625 28.484375 -34.3125 C 28.816406 -34.226562 29.109375 -34.1875 29.359375 -34.1875 L 29.84375 -34.1875 L 29.84375 -28.5625 L 29.3125 -28.5625 C 29.09375 -29.65625 28.675781 -30.535156 28.0625 -31.203125 C 27.445312 -31.878906 26.734375 -32.394531 25.921875 -32.75 C 25.109375 -33.101562 24.25 -33.34375 23.34375 -33.46875 C 22.445312 -33.59375 21.609375 -33.65625 20.828125 -33.65625 C 18.179688 -33.65625 15.882812 -33.1875 13.9375 -32.25 C 12 -31.3125 10.410156 -30.097656 9.171875 -28.609375 C 7.929688 -27.128906 7.007812 -25.460938 6.40625 -23.609375 C 5.8125 -21.753906 5.515625 -19.910156 5.515625 -18.078125 C 5.515625 -16.023438 5.898438 -14 6.671875 -12 C 7.453125 -10.007812 8.546875 -8.226562 9.953125 -6.65625 C 11.367188 -5.082031 13.078125 -3.804688 15.078125 -2.828125 C 17.078125 -1.859375 19.296875 -1.375 21.734375 -1.375 C 22.398438 -1.375 23.226562 -1.453125 24.21875 -1.609375 C 25.207031 -1.773438 26.195312 -2.140625 27.1875 -2.703125 L 27.1875 -15.15625 C 27.1875 -15.40625 27.148438 -15.6875 27.078125 -16 C 27.015625 -16.320312 26.898438 -16.625 26.734375 -16.90625 C 26.578125 -17.1875 26.390625 -17.421875 26.171875 -17.609375 C 25.960938 -17.804688 25.71875 -17.90625 25.4375 -17.90625 L 25.171875 -17.90625 Z M 25.171875 -18.4375 "/></g></g></g><g fill="#ffffff" fill-opacity="1"><g transform="translate(107.218506, 202.878181)"><g><path d="M 9.59375 -0.53125 L 9.859375 -0.53125 L 9.859375 0 L 2.390625 0 L 2.390625 -0.53125 L 2.65625 -0.53125 C 2.894531 -0.53125 3.117188 -0.632812 3.328125 -0.84375 C 3.546875 -1.0625 3.734375 -1.3125 3.890625 -1.59375 C 4.054688 -1.875 4.171875 -2.179688 4.234375 -2.515625 C 4.304688 -2.847656 4.34375 -3.15625 4.34375 -3.4375 L 4.34375 -31.6875 C 4.34375 -31.9375 4.304688 -32.21875 4.234375 -32.53125 C 4.171875 -32.851562 4.054688 -33.15625 3.890625 -33.4375 C 3.734375 -33.71875 3.546875 -33.957031 3.328125 -34.15625 C 3.117188 -34.351562 2.894531 -34.453125 2.65625 -34.453125 L 2.390625 -34.453125 L 2.390625 -34.984375 L 11.609375 -34.984375 C 15.140625 -34.984375 17.867188 -34.289062 19.796875 -32.90625 C 21.722656 -31.53125 22.6875 -29.5 22.6875 -26.8125 C 22.6875 -25.46875 22.460938 -24.289062 22.015625 -23.28125 C 21.578125 -22.28125 20.988281 -21.414062 20.25 -20.6875 C 19.507812 -19.96875 18.632812 -19.382812 17.625 -18.9375 C 16.613281 -18.5 15.546875 -18.175781 14.421875 -17.96875 L 18.234375 -12.140625 C 19.148438 -10.722656 20.082031 -9.332031 21.03125 -7.96875 C 21.988281 -6.613281 22.925781 -5.210938 23.84375 -3.765625 C 24.09375 -3.410156 24.367188 -3.035156 24.671875 -2.640625 C 24.972656 -2.253906 25.289062 -1.898438 25.625 -1.578125 C 25.957031 -1.265625 26.304688 -1.007812 26.671875 -0.8125 C 27.046875 -0.625 27.429688 -0.53125 27.828125 -0.53125 L 27.828125 0 L 25.546875 0 C 24.128906 0 22.96875 -0.34375 22.0625 -1.03125 C 21.164062 -1.71875 20.421875 -2.519531 19.828125 -3.4375 C 18.234375 -5.769531 16.648438 -8.140625 15.078125 -10.546875 C 13.503906 -12.953125 11.941406 -15.320312 10.390625 -17.65625 C 10.003906 -17.6875 9.585938 -17.726562 9.140625 -17.78125 C 8.703125 -17.832031 8.285156 -17.894531 7.890625 -17.96875 L 7.890625 -3.4375 C 7.890625 -3.15625 7.925781 -2.847656 8 -2.515625 C 8.070312 -2.179688 8.1875 -1.875 8.34375 -1.59375 C 8.507812 -1.3125 8.6875 -1.0625 8.875 -0.84375 C 9.070312 -0.632812 9.3125 -0.53125 9.59375 -0.53125 Z M 7.890625 -33.171875 L 7.890625 -19.71875 L 8.15625 -19.71875 C 8.445312 -19.675781 8.898438 -19.644531 9.515625 -19.625 C 10.128906 -19.613281 10.894531 -19.609375 11.8125 -19.609375 C 12.5625 -19.609375 13.347656 -19.722656 14.171875 -19.953125 C 15.003906 -20.179688 15.78125 -20.566406 16.5 -21.109375 C 17.226562 -21.660156 17.832031 -22.378906 18.3125 -23.265625 C 18.789062 -24.148438 19.03125 -25.265625 19.03125 -26.609375 C 19.03125 -27.953125 18.769531 -29.046875 18.25 -29.890625 C 17.738281 -30.734375 17.03125 -31.398438 16.125 -31.890625 C 15.226562 -32.390625 14.144531 -32.726562 12.875 -32.90625 C 11.601562 -33.082031 10.207031 -33.171875 8.6875 -33.171875 Z M 7.890625 -33.171875 "/></g></g></g><g fill="#ffffff" fill-opacity="1"><g transform="translate(140.498309, 202.878181)"><g><path d="M 2.59375 -34.984375 L 10.171875 -34.984375 L 10.171875 -34.453125 L 9.90625 -34.453125 C 9.664062 -34.453125 9.4375 -34.351562 9.21875 -34.15625 C 9.007812 -33.957031 8.832031 -33.726562 8.6875 -33.46875 C 8.550781 -33.207031 8.4375 -32.90625 8.34375 -32.5625 C 8.257812 -32.226562 8.21875 -31.9375 8.21875 -31.6875 L 8.21875 -3.4375 C 8.21875 -3.15625 8.25 -2.847656 8.3125 -2.515625 C 8.382812 -2.179688 8.5 -1.875 8.65625 -1.59375 C 8.820312 -1.3125 9 -1.0625 9.1875 -0.84375 C 9.382812 -0.632812 9.625 -0.53125 9.90625 -0.53125 L 10.171875 -0.53125 L 10.171875 0 L 2.59375 0 L 2.59375 -0.53125 L 2.859375 -0.53125 C 3.140625 -0.53125 3.382812 -0.625 3.59375 -0.8125 C 3.8125 -1.007812 4 -1.257812 4.15625 -1.5625 C 4.320312 -1.863281 4.4375 -2.179688 4.5 -2.515625 C 4.570312 -2.847656 4.609375 -3.15625 4.609375 -3.4375 L 4.609375 -31.6875 C 4.609375 -31.9375 4.570312 -32.21875 4.5 -32.53125 C 4.4375 -32.851562 4.320312 -33.15625 4.15625 -33.4375 C 4 -33.71875 3.8125 -33.957031 3.59375 -34.15625 C 3.382812 -34.351562 3.140625 -34.453125 2.859375 -34.453125 L 2.59375 -34.453125 Z M 2.59375 -34.984375 "/></g></g></g><g fill="#ffffff" fill-opacity="1"><g transform="translate(158.039417, 202.878181)"><g><path d="M 2.390625 -0.53125 L 2.65625 -0.53125 C 2.9375 -0.53125 3.179688 -0.625 3.390625 -0.8125 C 3.597656 -1.007812 3.78125 -1.25 3.9375 -1.53125 C 4.101562 -1.820312 4.226562 -2.125 4.3125 -2.4375 C 4.40625 -2.757812 4.453125 -3.0625 4.453125 -3.34375 L 4.453125 -31.6875 C 4.453125 -31.9375 4.40625 -32.21875 4.3125 -32.53125 C 4.226562 -32.851562 4.101562 -33.15625 3.9375 -33.4375 C 3.78125 -33.71875 3.597656 -33.957031 3.390625 -34.15625 C 3.179688 -34.351562 2.9375 -34.453125 2.65625 -34.453125 L 2.390625 -34.453125 L 2.390625 -34.984375 L 22.796875 -34.984375 L 22.796875 -30.046875 L 22.265625 -30.046875 C 22.191406 -30.859375 21.867188 -31.570312 21.296875 -32.1875 C 20.734375 -32.8125 19.851562 -33.125 18.65625 -33.125 L 8 -33.125 L 8 -19.71875 L 16.796875 -19.71875 C 17.609375 -19.71875 18.285156 -19.960938 18.828125 -20.453125 C 19.378906 -20.953125 19.65625 -21.535156 19.65625 -22.203125 L 20.1875 -22.203125 L 20.1875 -15.578125 L 19.65625 -15.578125 C 19.65625 -16.210938 19.390625 -16.757812 18.859375 -17.21875 C 18.335938 -17.675781 17.648438 -17.90625 16.796875 -17.90625 L 8 -17.90625 L 8 -1.859375 L 19.609375 -1.859375 C 20.273438 -1.859375 20.851562 -2.015625 21.34375 -2.328125 C 21.84375 -2.648438 22.257812 -3.03125 22.59375 -3.46875 C 22.9375 -3.914062 23.1875 -4.394531 23.34375 -4.90625 C 23.5 -5.414062 23.578125 -5.847656 23.578125 -6.203125 L 24.109375 -6.203125 L 24.109375 0 L 2.390625 0 Z M 2.390625 -0.53125 "/></g></g></g><g fill="#ffffff" fill-opacity="1"><g transform="translate(188.404653, 202.878181)"><g><path d="M 2.390625 -0.53125 L 2.65625 -0.53125 C 2.894531 -0.53125 3.117188 -0.632812 3.328125 -0.84375 C 3.546875 -1.0625 3.734375 -1.3125 3.890625 -1.59375 C 4.054688 -1.875 4.171875 -2.179688 4.234375 -2.515625 C 4.304688 -2.847656 4.34375 -3.15625 4.34375 -3.4375 L 4.34375 -31.640625 C 4.34375 -31.890625 4.304688 -32.171875 4.234375 -32.484375 C 4.171875 -32.804688 4.054688 -33.113281 3.890625 -33.40625 C 3.734375 -33.707031 3.539062 -33.957031 3.3125 -34.15625 C 3.082031 -34.351562 2.828125 -34.453125 2.546875 -34.453125 L 2.28125 -34.453125 L 2.28125 -34.984375 L 10.96875 -34.984375 C 14.257812 -34.984375 16.832031 -34.257812 18.6875 -32.8125 C 20.539062 -31.363281 21.46875 -29.4375 21.46875 -27.03125 C 21.46875 -26.007812 21.289062 -25.09375 20.9375 -24.28125 C 20.582031 -23.46875 20.128906 -22.738281 19.578125 -22.09375 C 19.035156 -21.457031 18.445312 -20.921875 17.8125 -20.484375 C 17.175781 -20.046875 16.570312 -19.679688 16 -19.390625 C 17.488281 -19.109375 18.726562 -18.628906 19.71875 -17.953125 C 20.707031 -17.285156 21.507812 -16.519531 22.125 -15.65625 C 22.75 -14.789062 23.179688 -13.863281 23.421875 -12.875 C 23.671875 -11.882812 23.796875 -10.914062 23.796875 -9.96875 C 23.796875 -8.125 23.457031 -6.570312 22.78125 -5.3125 C 22.113281 -4.0625 21.222656 -3.039062 20.109375 -2.25 C 18.992188 -1.457031 17.722656 -0.882812 16.296875 -0.53125 C 14.867188 -0.175781 13.394531 0 11.875 0 L 2.390625 0 Z M 20.1875 -9.640625 C 19.90625 -12.367188 18.988281 -14.472656 17.4375 -15.953125 C 15.882812 -17.429688 13.691406 -18.171875 10.859375 -18.171875 L 7.890625 -18.171875 L 7.890625 -1.75 L 10.96875 -1.75 C 13.832031 -1.75 16.082031 -2.394531 17.71875 -3.6875 C 19.363281 -4.976562 20.1875 -6.769531 20.1875 -9.0625 Z M 18.015625 -26.546875 C 17.910156 -28.597656 17.195312 -30.222656 15.875 -31.421875 C 14.550781 -32.628906 12.773438 -33.234375 10.546875 -33.234375 L 7.890625 -33.234375 L 7.890625 -19.875 L 10.65625 -19.875 C 12.132812 -19.875 13.34375 -20.066406 14.28125 -20.453125 C 15.21875 -20.847656 15.96875 -21.351562 16.53125 -21.96875 C 17.101562 -22.582031 17.492188 -23.257812 17.703125 -24 C 17.910156 -24.75 18.015625 -25.476562 18.015625 -26.1875 Z M 18.015625 -26.546875 "/></g></g></g><g fill="#ffffff" fill-opacity="1"><g transform="translate(218.981857, 202.878181)"><g><path d="M 2.390625 -0.53125 L 2.65625 -0.53125 C 2.9375 -0.53125 3.179688 -0.625 3.390625 -0.8125 C 3.597656 -1.007812 3.78125 -1.25 3.9375 -1.53125 C 4.101562 -1.820312 4.226562 -2.125 4.3125 -2.4375 C 4.40625 -2.757812 4.453125 -3.0625 4.453125 -3.34375 L 4.453125 -31.6875 C 4.453125 -31.9375 4.40625 -32.21875 4.3125 -32.53125 C 4.226562 -32.851562 4.101562 -33.15625 3.9375 -33.4375 C 3.78125 -33.71875 3.597656 -33.957031 3.390625 -34.15625 C 3.179688 -34.351562 2.9375 -34.453125 2.65625 -34.453125 L 2.390625 -34.453125 L 2.390625 -34.984375 L 10.015625 -34.984375 L 10.015625 -34.453125 L 9.75 -34.453125 C 9.46875 -34.453125 9.21875 -34.351562 9 -34.15625 C 8.789062 -33.957031 8.613281 -33.71875 8.46875 -33.4375 C 8.332031 -33.15625 8.21875 -32.851562 8.125 -32.53125 C 8.039062 -32.21875 8 -31.9375 8 -31.6875 L 8 -1.96875 L 19.609375 -1.96875 C 20.273438 -1.96875 20.851562 -2.125 21.34375 -2.4375 C 21.84375 -2.757812 22.257812 -3.15625 22.59375 -3.625 C 22.9375 -4.101562 23.1875 -4.613281 23.34375 -5.15625 C 23.5 -5.707031 23.578125 -6.210938 23.578125 -6.671875 L 24.109375 -6.671875 L 24.109375 0 L 2.390625 0 Z M 2.390625 -0.53125 "/></g></g></g><g fill="#ffffff" fill-opacity="1"><g transform="translate(248.287245, 202.878181)"><g><path d="M 2.390625 -0.53125 L 2.65625 -0.53125 C 2.9375 -0.53125 3.179688 -0.625 3.390625 -0.8125 C 3.597656 -1.007812 3.78125 -1.25 3.9375 -1.53125 C 4.101562 -1.820312 4.226562 -2.125 4.3125 -2.4375 C 4.40625 -2.757812 4.453125 -3.0625 4.453125 -3.34375 L 4.453125 -31.6875 C 4.453125 -31.9375 4.40625 -32.21875 4.3125 -32.53125 C 4.226562 -32.851562 4.101562 -33.15625 3.9375 -33.4375 C 3.78125 -33.71875 3.597656 -33.957031 3.390625 -34.15625 C 3.179688 -34.351562 2.9375 -34.453125 2.65625 -34.453125 L 2.390625 -34.453125 L 2.390625 -34.984375 L 22.796875 -34.984375 L 22.796875 -30.046875 L 22.265625 -30.046875 C 22.191406 -30.859375 21.867188 -31.570312 21.296875 -32.1875 C 20.734375 -32.8125 19.851562 -33.125 18.65625 -33.125 L 8 -33.125 L 8 -19.71875 L 16.796875 -19.71875 C 17.609375 -19.71875 18.285156 -19.960938 18.828125 -20.453125 C 19.378906 -20.953125 19.65625 -21.535156 19.65625 -22.203125 L 20.1875 -22.203125 L 20.1875 -15.578125 L 19.65625 -15.578125 C 19.65625 -16.210938 19.390625 -16.757812 18.859375 -17.21875 C 18.335938 -17.675781 17.648438 -17.90625 16.796875 -17.90625 L 8 -17.90625 L 8 -1.859375 L 19.609375 -1.859375 C 20.273438 -1.859375 20.851562 -2.015625 21.34375 -2.328125 C 21.84375 -2.648438 22.257812 -3.03125 22.59375 -3.46875 C 22.9375 -3.914062 23.1875 -4.394531 23.34375 -4.90625 C 23.5 -5.414062 23.578125 -5.847656 23.578125 -6.203125 L 24.109375 -6.203125 L 24.109375 0 L 2.390625 0 Z M 2.390625 -0.53125 "/></g></g></g><g fill="#ffffff" fill-opacity="1"><g transform="translate(278.652481, 202.878181)"><g><path d="M 9.59375 -0.53125 L 9.859375 -0.53125 L 9.859375 0 L 2.390625 0 L 2.390625 -0.53125 L 2.65625 -0.53125 C 2.894531 -0.53125 3.117188 -0.632812 3.328125 -0.84375 C 3.546875 -1.0625 3.734375 -1.3125 3.890625 -1.59375 C 4.054688 -1.875 4.171875 -2.179688 4.234375 -2.515625 C 4.304688 -2.847656 4.34375 -3.15625 4.34375 -3.4375 L 4.34375 -31.6875 C 4.34375 -31.9375 4.304688 -32.21875 4.234375 -32.53125 C 4.171875 -32.851562 4.054688 -33.15625 3.890625 -33.4375 C 3.734375 -33.71875 3.546875 -33.957031 3.328125 -34.15625 C 3.117188 -34.351562 2.894531 -34.453125 2.65625 -34.453125 L 2.390625 -34.453125 L 2.390625 -34.984375 L 11.609375 -34.984375 C 15.140625 -34.984375 17.867188 -34.289062 19.796875 -32.90625 C 21.722656 -31.53125 22.6875 -29.5 22.6875 -26.8125 C 22.6875 -25.46875 22.460938 -24.289062 22.015625 -23.28125 C 21.578125 -22.28125 20.988281 -21.414062 20.25 -20.6875 C 19.507812 -19.96875 18.632812 -19.382812 17.625 -18.9375 C 16.613281 -18.5 15.546875 -18.175781 14.421875 -17.96875 L 18.234375 -12.140625 C 19.148438 -10.722656 20.082031 -9.332031 21.03125 -7.96875 C 21.988281 -6.613281 22.925781 -5.210938 23.84375 -3.765625 C 24.09375 -3.410156 24.367188 -3.035156 24.671875 -2.640625 C 24.972656 -2.253906 25.289062 -1.898438 25.625 -1.578125 C 25.957031 -1.265625 26.304688 -1.007812 26.671875 -0.8125 C 27.046875 -0.625 27.429688 -0.53125 27.828125 -0.53125 L 27.828125 0 L 25.546875 0 C 24.128906 0 22.96875 -0.34375 22.0625 -1.03125 C 21.164062 -1.71875 20.421875 -2.519531 19.828125 -3.4375 C 18.234375 -5.769531 16.648438 -8.140625 15.078125 -10.546875 C 13.503906 -12.953125 11.941406 -15.320312 10.390625 -17.65625 C 10.003906 -17.6875 9.585938 -17.726562 9.140625 -17.78125 C 8.703125 -17.832031 8.285156 -17.894531 7.890625 -17.96875 L 7.890625 -3.4375 C 7.890625 -3.15625 7.925781 -2.847656 8 -2.515625 C 8.070312 -2.179688 8.1875 -1.875 8.34375 -1.59375 C 8.507812 -1.3125 8.6875 -1.0625 8.875 -0.84375 C 9.070312 -0.632812 9.3125 -0.53125 9.59375 -0.53125 Z M 7.890625 -33.171875 L 7.890625 -19.71875 L 8.15625 -19.71875 C 8.445312 -19.675781 8.898438 -19.644531 9.515625 -19.625 C 10.128906 -19.613281 10.894531 -19.609375 11.8125 -19.609375 C 12.5625 -19.609375 13.347656 -19.722656 14.171875 -19.953125 C 15.003906 -20.179688 15.78125 -20.566406 16.5 -21.109375 C 17.226562 -21.660156 17.832031 -22.378906 18.3125 -23.265625 C 18.789062 -24.148438 19.03125 -25.265625 19.03125 -26.609375 C 19.03125 -27.953125 18.769531 -29.046875 18.25 -29.890625 C 17.738281 -30.734375 17.03125 -31.398438 16.125 -31.890625 C 15.226562 -32.390625 14.144531 -32.726562 12.875 -32.90625 C 11.601562 -33.082031 10.207031 -33.171875 8.6875 -33.171875 Z M 7.890625 -33.171875 "/></g></g></g><g fill="#ffffff" fill-opacity="1"><g transform="translate(95.027986, 260.975726)"><g><path d="M 3.796875 -0.203125 L 3.90625 -0.203125 L 3.90625 0 L 0.9375 0 L 0.9375 -0.203125 L 1.046875 -0.203125 C 1.148438 -0.203125 1.242188 -0.242188 1.328125 -0.328125 C 1.410156 -0.421875 1.484375 -0.519531 1.546875 -0.625 C 1.609375 -0.738281 1.648438 -0.863281 1.671875 -1 C 1.703125 -1.132812 1.71875 -1.253906 1.71875 -1.359375 L 1.71875 -12.5625 C 1.71875 -12.65625 1.703125 -12.765625 1.671875 -12.890625 C 1.648438 -13.015625 1.609375 -13.132812 1.546875 -13.25 C 1.484375 -13.363281 1.410156 -13.457031 1.328125 -13.53125 C 1.242188 -13.613281 1.148438 -13.65625 1.046875 -13.65625 L 0.9375 -13.65625 L 0.9375 -13.859375 L 4.59375 -13.859375 C 6 -13.859375 7.082031 -13.582031 7.84375 -13.03125 C 8.601562 -12.488281 8.984375 -11.6875 8.984375 -10.625 C 8.984375 -10.09375 8.894531 -9.625 8.71875 -9.21875 C 8.550781 -8.820312 8.316406 -8.476562 8.015625 -8.1875 C 7.722656 -7.90625 7.378906 -7.675781 6.984375 -7.5 C 6.585938 -7.332031 6.164062 -7.207031 5.71875 -7.125 L 7.21875 -4.8125 C 7.582031 -4.25 7.953125 -3.695312 8.328125 -3.15625 C 8.710938 -2.625 9.085938 -2.066406 9.453125 -1.484375 C 9.546875 -1.347656 9.648438 -1.203125 9.765625 -1.046875 C 9.890625 -0.890625 10.019531 -0.75 10.15625 -0.625 C 10.289062 -0.5 10.429688 -0.394531 10.578125 -0.3125 C 10.722656 -0.238281 10.875 -0.203125 11.03125 -0.203125 L 11.03125 0 L 10.125 0 C 9.5625 0 9.101562 -0.132812 8.75 -0.40625 C 8.394531 -0.675781 8.097656 -0.992188 7.859375 -1.359375 C 7.222656 -2.285156 6.59375 -3.222656 5.96875 -4.171875 C 5.351562 -5.128906 4.734375 -6.070312 4.109375 -7 C 3.960938 -7.007812 3.800781 -7.023438 3.625 -7.046875 C 3.445312 -7.066406 3.28125 -7.09375 3.125 -7.125 L 3.125 -1.359375 C 3.125 -1.253906 3.140625 -1.132812 3.171875 -1 C 3.203125 -0.863281 3.25 -0.738281 3.3125 -0.625 C 3.375 -0.519531 3.441406 -0.421875 3.515625 -0.328125 C 3.597656 -0.242188 3.691406 -0.203125 3.796875 -0.203125 Z M 3.125 -13.140625 L 3.125 -7.8125 L 3.234375 -7.8125 C 3.347656 -7.800781 3.523438 -7.789062 3.765625 -7.78125 C 4.015625 -7.769531 4.320312 -7.765625 4.6875 -7.765625 C 4.976562 -7.765625 5.285156 -7.8125 5.609375 -7.90625 C 5.941406 -8 6.25 -8.148438 6.53125 -8.359375 C 6.820312 -8.578125 7.0625 -8.863281 7.25 -9.21875 C 7.4375 -9.570312 7.53125 -10.015625 7.53125 -10.546875 C 7.53125 -11.078125 7.429688 -11.507812 7.234375 -11.84375 C 7.035156 -12.175781 6.753906 -12.441406 6.390625 -12.640625 C 6.035156 -12.835938 5.601562 -12.96875 5.09375 -13.03125 C 4.59375 -13.101562 4.039062 -13.140625 3.4375 -13.140625 Z M 3.125 -13.140625 "/></g></g></g><g fill="#ffffff" fill-opacity="1"><g transform="translate(113.718026, 260.975726)"><g><path d="M 0.9375 -0.203125 L 1.046875 -0.203125 C 1.160156 -0.203125 1.257812 -0.238281 1.34375 -0.3125 C 1.425781 -0.394531 1.5 -0.492188 1.5625 -0.609375 C 1.625 -0.722656 1.671875 -0.84375 1.703125 -0.96875 C 1.742188 -1.09375 1.765625 -1.210938 1.765625 -1.328125 L 1.765625 -12.5625 C 1.765625 -12.65625 1.742188 -12.765625 1.703125 -12.890625 C 1.671875 -13.015625 1.625 -13.132812 1.5625 -13.25 C 1.5 -13.363281 1.425781 -13.457031 1.34375 -13.53125 C 1.257812 -13.613281 1.160156 -13.65625 1.046875 -13.65625 L 0.9375 -13.65625 L 0.9375 -13.859375 L 9.03125 -13.859375 L 9.03125 -11.90625 L 8.8125 -11.90625 C 8.789062 -12.226562 8.664062 -12.507812 8.4375 -12.75 C 8.21875 -13 7.867188 -13.125 7.390625 -13.125 L 3.171875 -13.125 L 3.171875 -7.8125 L 6.65625 -7.8125 C 6.976562 -7.8125 7.25 -7.910156 7.46875 -8.109375 C 7.6875 -8.304688 7.796875 -8.535156 7.796875 -8.796875 L 8 -8.796875 L 8 -6.171875 L 7.796875 -6.171875 C 7.796875 -6.421875 7.6875 -6.632812 7.46875 -6.8125 C 7.257812 -7 6.988281 -7.09375 6.65625 -7.09375 L 3.171875 -7.09375 L 3.171875 -0.734375 L 7.765625 -0.734375 C 8.035156 -0.734375 8.265625 -0.796875 8.453125 -0.921875 C 8.648438 -1.046875 8.816406 -1.195312 8.953125 -1.375 C 9.085938 -1.550781 9.1875 -1.738281 9.25 -1.9375 C 9.3125 -2.144531 9.34375 -2.316406 9.34375 -2.453125 L 9.5625 -2.453125 L 9.5625 0 L 0.9375 0 Z M 0.9375 -0.203125 "/></g></g></g><g fill="#ffffff" fill-opacity="1"><g transform="translate(131.253072, 260.975726)"><g><path d="M 12.25 -0.203125 L 12.34375 -0.203125 C 12.445312 -0.203125 12.539062 -0.242188 12.625 -0.328125 C 12.707031 -0.421875 12.78125 -0.519531 12.84375 -0.625 C 12.90625 -0.738281 12.945312 -0.863281 12.96875 -1 C 13 -1.132812 13.015625 -1.253906 13.015625 -1.359375 L 13.015625 -12.40625 L 7.609375 0.234375 L 2.453125 -11.765625 L 2.453125 -1.359375 C 2.453125 -1.253906 2.46875 -1.132812 2.5 -1 C 2.53125 -0.863281 2.578125 -0.738281 2.640625 -0.625 C 2.703125 -0.519531 2.773438 -0.421875 2.859375 -0.328125 C 2.941406 -0.242188 3.039062 -0.203125 3.15625 -0.203125 L 3.25 -0.203125 L 3.25 0 L 0.96875 0 L 0.96875 -0.203125 L 1.078125 -0.203125 C 1.171875 -0.203125 1.257812 -0.242188 1.34375 -0.328125 C 1.425781 -0.421875 1.492188 -0.519531 1.546875 -0.625 C 1.609375 -0.738281 1.648438 -0.863281 1.671875 -1 C 1.703125 -1.132812 1.71875 -1.253906 1.71875 -1.359375 L 1.71875 -12.5625 C 1.71875 -12.65625 1.703125 -12.765625 1.671875 -12.890625 C 1.648438 -13.015625 1.609375 -13.132812 1.546875 -13.25 C 1.492188 -13.363281 1.425781 -13.457031 1.34375 -13.53125 C 1.257812 -13.613281 1.171875 -13.65625 1.078125 -13.65625 L 0.96875 -13.65625 L 0.96875 -13.859375 L 3.109375 -13.859375 L 7.984375 -2.375 L 12.859375 -13.859375 L 15.21875 -13.859375 L 15.21875 -13.65625 L 15.125 -13.65625 C 15.007812 -13.65625 14.910156 -13.613281 14.828125 -13.53125 C 14.742188 -13.457031 14.671875 -13.363281 14.609375 -13.25 C 14.546875 -13.132812 14.5 -13.015625 14.46875 -12.890625 C 14.4375 -12.765625 14.421875 -12.65625 14.421875 -12.5625 L 14.421875 -1.359375 C 14.421875 -1.253906 14.4375 -1.132812 14.46875 -1 C 14.5 -0.863281 14.546875 -0.738281 14.609375 -0.625 C 14.671875 -0.519531 14.742188 -0.421875 14.828125 -0.328125 C 14.910156 -0.242188 15.007812 -0.203125 15.125 -0.203125 L 15.21875 -0.203125 L 15.21875 0 L 12.25 0 Z M 12.25 -0.203125 "/></g></g></g><g fill="#ffffff" fill-opacity="1"><g transform="translate(154.920133, 260.975726)"><g><path d="M 8.015625 -14.0625 C 9.109375 -14.0625 10.085938 -13.867188 10.953125 -13.484375 C 11.828125 -13.109375 12.566406 -12.59375 13.171875 -11.9375 C 13.785156 -11.289062 14.253906 -10.535156 14.578125 -9.671875 C 14.910156 -8.804688 15.078125 -7.90625 15.078125 -6.96875 C 15.078125 -5.914062 14.882812 -4.945312 14.5 -4.0625 C 14.113281 -3.1875 13.582031 -2.429688 12.90625 -1.796875 C 12.238281 -1.171875 11.457031 -0.679688 10.5625 -0.328125 C 9.675781 0.0234375 8.734375 0.203125 7.734375 0.203125 C 6.648438 0.203125 5.675781 0.0078125 4.8125 -0.375 C 3.957031 -0.769531 3.234375 -1.285156 2.640625 -1.921875 C 2.046875 -2.566406 1.585938 -3.3125 1.265625 -4.15625 C 0.941406 -5 0.78125 -5.875 0.78125 -6.78125 C 0.78125 -7.675781 0.941406 -8.5625 1.265625 -9.4375 C 1.585938 -10.3125 2.054688 -11.09375 2.671875 -11.78125 C 3.296875 -12.46875 4.054688 -13.019531 4.953125 -13.4375 C 5.847656 -13.851562 6.867188 -14.0625 8.015625 -14.0625 Z M 8 -0.53125 C 8.9375 -0.570312 9.757812 -0.785156 10.46875 -1.171875 C 11.175781 -1.554688 11.765625 -2.046875 12.234375 -2.640625 C 12.710938 -3.234375 13.066406 -3.882812 13.296875 -4.59375 C 13.535156 -5.3125 13.65625 -6.019531 13.65625 -6.71875 C 13.65625 -7.488281 13.515625 -8.265625 13.234375 -9.046875 C 12.953125 -9.835938 12.550781 -10.550781 12.03125 -11.1875 C 11.507812 -11.820312 10.890625 -12.335938 10.171875 -12.734375 C 9.453125 -13.128906 8.644531 -13.328125 7.75 -13.328125 C 6.882812 -13.328125 6.109375 -13.132812 5.421875 -12.75 C 4.734375 -12.375 4.144531 -11.882812 3.65625 -11.28125 C 3.175781 -10.675781 2.8125 -10 2.5625 -9.25 C 2.3125 -8.507812 2.1875 -7.785156 2.1875 -7.078125 C 2.1875 -6.304688 2.332031 -5.53125 2.625 -4.75 C 2.914062 -3.976562 3.320312 -3.273438 3.84375 -2.640625 C 4.363281 -2.015625 4.972656 -1.503906 5.671875 -1.109375 C 6.378906 -0.722656 7.15625 -0.53125 8 -0.53125 Z M 8 -0.53125 "/></g></g></g><g fill="#ffffff" fill-opacity="1"><g transform="translate(178.251201, 260.975726)"><g><path d="M 0.921875 -0.203125 L 1.03125 -0.203125 C 1.125 -0.203125 1.210938 -0.242188 1.296875 -0.328125 C 1.378906 -0.421875 1.453125 -0.519531 1.515625 -0.625 C 1.578125 -0.738281 1.625 -0.863281 1.65625 -1 C 1.6875 -1.132812 1.703125 -1.253906 1.703125 -1.359375 L 1.703125 -12.5625 C 1.703125 -12.65625 1.6875 -12.765625 1.65625 -12.890625 C 1.625 -13.015625 1.582031 -13.132812 1.53125 -13.25 C 1.476562 -13.363281 1.410156 -13.457031 1.328125 -13.53125 C 1.242188 -13.613281 1.144531 -13.65625 1.03125 -13.65625 L 0.921875 -13.65625 L 0.921875 -13.859375 L 4.984375 -13.859375 C 6.085938 -13.859375 7.078125 -13.664062 7.953125 -13.28125 C 8.835938 -12.894531 9.582031 -12.375 10.1875 -11.71875 C 10.800781 -11.070312 11.269531 -10.328125 11.59375 -9.484375 C 11.914062 -8.648438 12.078125 -7.773438 12.078125 -6.859375 C 12.078125 -6.015625 11.921875 -5.179688 11.609375 -4.359375 C 11.304688 -3.535156 10.84375 -2.800781 10.21875 -2.15625 C 9.601562 -1.519531 8.832031 -1 7.90625 -0.59375 C 6.988281 -0.195312 5.921875 0 4.703125 0 L 0.921875 0 Z M 10.640625 -6.546875 C 10.640625 -7.441406 10.476562 -8.289062 10.15625 -9.09375 C 9.84375 -9.894531 9.394531 -10.59375 8.8125 -11.1875 C 8.226562 -11.78125 7.539062 -12.25 6.75 -12.59375 C 5.957031 -12.945312 5.097656 -13.125 4.171875 -13.125 L 3.109375 -13.125 L 3.109375 -0.734375 L 4.21875 -0.734375 C 4.976562 -0.734375 5.738281 -0.847656 6.5 -1.078125 C 7.257812 -1.304688 7.945312 -1.660156 8.5625 -2.140625 C 9.175781 -2.628906 9.675781 -3.238281 10.0625 -3.96875 C 10.445312 -4.695312 10.640625 -5.554688 10.640625 -6.546875 Z M 10.640625 -6.546875 "/></g></g></g><g fill="#ffffff" fill-opacity="1"><g transform="translate(198.53726, 260.975726)"><g><path d="M 0.9375 -0.203125 L 1.046875 -0.203125 C 1.160156 -0.203125 1.257812 -0.238281 1.34375 -0.3125 C 1.425781 -0.394531 1.5 -0.492188 1.5625 -0.609375 C 1.625 -0.722656 1.671875 -0.84375 1.703125 -0.96875 C 1.742188 -1.09375 1.765625 -1.210938 1.765625 -1.328125 L 1.765625 -12.5625 C 1.765625 -12.65625 1.742188 -12.765625 1.703125 -12.890625 C 1.671875 -13.015625 1.625 -13.132812 1.5625 -13.25 C 1.5 -13.363281 1.425781 -13.457031 1.34375 -13.53125 C 1.257812 -13.613281 1.160156 -13.65625 1.046875 -13.65625 L 0.9375 -13.65625 L 0.9375 -13.859375 L 9.03125 -13.859375 L 9.03125 -11.90625 L 8.8125 -11.90625 C 8.789062 -12.226562 8.664062 -12.507812 8.4375 -12.75 C 8.21875 -13 7.867188 -13.125 7.390625 -13.125 L 3.171875 -13.125 L 3.171875 -7.8125 L 6.65625 -7.8125 C 6.976562 -7.8125 7.25 -7.910156 7.46875 -8.109375 C 7.6875 -8.304688 7.796875 -8.535156 7.796875 -8.796875 L 8 -8.796875 L 8 -6.171875 L 7.796875 -6.171875 C 7.796875 -6.421875 7.6875 -6.632812 7.46875 -6.8125 C 7.257812 -7 6.988281 -7.09375 6.65625 -7.09375 L 3.171875 -7.09375 L 3.171875 -0.734375 L 7.765625 -0.734375 C 8.035156 -0.734375 8.265625 -0.796875 8.453125 -0.921875 C 8.648438 -1.046875 8.816406 -1.195312 8.953125 -1.375 C 9.085938 -1.550781 9.1875 -1.738281 9.25 -1.9375 C 9.3125 -2.144531 9.34375 -2.316406 9.34375 -2.453125 L 9.5625 -2.453125 L 9.5625 0 L 0.9375 0 Z M 0.9375 -0.203125 "/></g></g></g><g fill="#ffffff" fill-opacity="1"><g transform="translate(216.072308, 260.975726)"><g><path d="M 0.9375 -0.203125 L 1.046875 -0.203125 C 1.160156 -0.203125 1.257812 -0.238281 1.34375 -0.3125 C 1.425781 -0.394531 1.5 -0.492188 1.5625 -0.609375 C 1.625 -0.722656 1.671875 -0.84375 1.703125 -0.96875 C 1.742188 -1.09375 1.765625 -1.210938 1.765625 -1.328125 L 1.765625 -12.5625 C 1.765625 -12.65625 1.742188 -12.765625 1.703125 -12.890625 C 1.671875 -13.015625 1.625 -13.132812 1.5625 -13.25 C 1.5 -13.363281 1.425781 -13.457031 1.34375 -13.53125 C 1.257812 -13.613281 1.160156 -13.65625 1.046875 -13.65625 L 0.9375 -13.65625 L 0.9375 -13.859375 L 3.96875 -13.859375 L 3.96875 -13.65625 L 3.859375 -13.65625 C 3.753906 -13.65625 3.65625 -13.613281 3.5625 -13.53125 C 3.476562 -13.457031 3.410156 -13.363281 3.359375 -13.25 C 3.304688 -13.132812 3.257812 -13.015625 3.21875 -12.890625 C 3.1875 -12.765625 3.171875 -12.65625 3.171875 -12.5625 L 3.171875 -0.78125 L 7.765625 -0.78125 C 8.035156 -0.78125 8.265625 -0.84375 8.453125 -0.96875 C 8.648438 -1.09375 8.816406 -1.25 8.953125 -1.4375 C 9.085938 -1.625 9.1875 -1.828125 9.25 -2.046875 C 9.3125 -2.265625 9.34375 -2.460938 9.34375 -2.640625 L 9.5625 -2.640625 L 9.5625 0 L 0.9375 0 Z M 0.9375 -0.203125 "/></g></g></g><g fill="#ffffff" fill-opacity="1"><g transform="translate(233.187347, 260.975726)"><g><path d="M 1.03125 -13.859375 L 4.03125 -13.859375 L 4.03125 -13.65625 L 3.921875 -13.65625 C 3.828125 -13.65625 3.738281 -13.613281 3.65625 -13.53125 C 3.570312 -13.457031 3.5 -13.367188 3.4375 -13.265625 C 3.382812 -13.160156 3.335938 -13.039062 3.296875 -12.90625 C 3.265625 -12.769531 3.25 -12.65625 3.25 -12.5625 L 3.25 -1.359375 C 3.25 -1.253906 3.265625 -1.132812 3.296875 -1 C 3.328125 -0.863281 3.375 -0.738281 3.4375 -0.625 C 3.5 -0.519531 3.566406 -0.421875 3.640625 -0.328125 C 3.722656 -0.242188 3.816406 -0.203125 3.921875 -0.203125 L 4.03125 -0.203125 L 4.03125 0 L 1.03125 0 L 1.03125 -0.203125 L 1.140625 -0.203125 C 1.242188 -0.203125 1.335938 -0.238281 1.421875 -0.3125 C 1.503906 -0.394531 1.578125 -0.492188 1.640625 -0.609375 C 1.710938 -0.734375 1.757812 -0.863281 1.78125 -1 C 1.8125 -1.132812 1.828125 -1.253906 1.828125 -1.359375 L 1.828125 -12.5625 C 1.828125 -12.65625 1.8125 -12.765625 1.78125 -12.890625 C 1.757812 -13.015625 1.710938 -13.132812 1.640625 -13.25 C 1.578125 -13.363281 1.503906 -13.457031 1.421875 -13.53125 C 1.335938 -13.613281 1.242188 -13.65625 1.140625 -13.65625 L 1.03125 -13.65625 Z M 1.03125 -13.859375 "/></g></g></g><g fill="#ffffff" fill-opacity="1"><g transform="translate(245.640372, 260.975726)"><g><path d="M 3.15625 -0.203125 L 3.25 -0.203125 L 3.25 0 L 0.921875 0 L 0.921875 -0.203125 L 1.03125 -0.203125 C 1.125 -0.203125 1.21875 -0.242188 1.3125 -0.328125 C 1.40625 -0.421875 1.476562 -0.519531 1.53125 -0.625 C 1.582031 -0.738281 1.625 -0.863281 1.65625 -1 C 1.695312 -1.132812 1.71875 -1.253906 1.71875 -1.359375 L 1.71875 -12.5625 C 1.71875 -12.65625 1.707031 -12.765625 1.6875 -12.890625 C 1.664062 -13.015625 1.625 -13.132812 1.5625 -13.25 C 1.507812 -13.363281 1.4375 -13.457031 1.34375 -13.53125 C 1.25 -13.613281 1.128906 -13.65625 0.984375 -13.65625 L 0.875 -13.65625 L 0.875 -13.859375 L 3 -13.859375 L 10.625 -1.84375 L 10.625 -12.5625 C 10.625 -12.65625 10.601562 -12.765625 10.5625 -12.890625 C 10.53125 -13.015625 10.484375 -13.132812 10.421875 -13.25 C 10.359375 -13.363281 10.285156 -13.457031 10.203125 -13.53125 C 10.117188 -13.613281 10.019531 -13.65625 9.90625 -13.65625 L 9.8125 -13.65625 L 9.8125 -13.859375 L 12.15625 -13.859375 L 12.15625 -13.65625 L 12.046875 -13.65625 C 11.941406 -13.65625 11.847656 -13.613281 11.765625 -13.53125 C 11.679688 -13.457031 11.601562 -13.363281 11.53125 -13.25 C 11.46875 -13.132812 11.421875 -13.015625 11.390625 -12.890625 C 11.367188 -12.765625 11.359375 -12.65625 11.359375 -12.5625 L 11.359375 0 L 10.0625 0 L 2.453125 -12.046875 L 2.453125 -1.359375 C 2.453125 -1.253906 2.46875 -1.132812 2.5 -1 C 2.53125 -0.863281 2.578125 -0.738281 2.640625 -0.625 C 2.703125 -0.519531 2.773438 -0.421875 2.859375 -0.328125 C 2.941406 -0.242188 3.039062 -0.203125 3.15625 -0.203125 Z M 3.15625 -0.203125 "/></g></g></g><g fill="#ffffff" fill-opacity="1"><g transform="translate(266.17843, 260.975726)"><g><path d="M 9.96875 -7.3125 L 12.984375 -7.3125 L 12.984375 -7.09375 L 12.875 -7.09375 C 12.757812 -7.09375 12.660156 -7.050781 12.578125 -6.96875 C 12.492188 -6.894531 12.421875 -6.800781 12.359375 -6.6875 C 12.304688 -6.582031 12.265625 -6.46875 12.234375 -6.34375 C 12.203125 -6.21875 12.1875 -6.101562 12.1875 -6 L 12.1875 -0.375 C 11.925781 -0.28125 11.632812 -0.195312 11.3125 -0.125 C 11 -0.0507812 10.664062 0.00390625 10.3125 0.046875 C 9.957031 0.0976562 9.597656 0.132812 9.234375 0.15625 C 8.867188 0.1875 8.535156 0.203125 8.234375 0.203125 C 6.972656 0.203125 5.875 -0.00390625 4.9375 -0.421875 C 4 -0.835938 3.222656 -1.382812 2.609375 -2.0625 C 1.992188 -2.75 1.535156 -3.519531 1.234375 -4.375 C 0.929688 -5.226562 0.78125 -6.085938 0.78125 -6.953125 C 0.78125 -7.816406 0.929688 -8.675781 1.234375 -9.53125 C 1.535156 -10.382812 1.992188 -11.144531 2.609375 -11.8125 C 3.234375 -12.488281 4.019531 -13.03125 4.96875 -13.4375 C 5.914062 -13.851562 7.039062 -14.0625 8.34375 -14.0625 C 8.832031 -14.0625 9.285156 -14.019531 9.703125 -13.9375 C 10.117188 -13.851562 10.488281 -13.78125 10.8125 -13.71875 C 11 -13.675781 11.15625 -13.632812 11.28125 -13.59375 C 11.414062 -13.5625 11.535156 -13.546875 11.640625 -13.546875 L 11.828125 -13.546875 L 11.828125 -11.3125 L 11.609375 -11.3125 C 11.523438 -11.75 11.359375 -12.097656 11.109375 -12.359375 C 10.867188 -12.628906 10.585938 -12.832031 10.265625 -12.96875 C 9.941406 -13.113281 9.601562 -13.207031 9.25 -13.25 C 8.894531 -13.300781 8.5625 -13.328125 8.25 -13.328125 C 7.195312 -13.328125 6.285156 -13.140625 5.515625 -12.765625 C 4.753906 -12.398438 4.125 -11.921875 3.625 -11.328125 C 3.132812 -10.742188 2.769531 -10.082031 2.53125 -9.34375 C 2.300781 -8.613281 2.1875 -7.882812 2.1875 -7.15625 C 2.1875 -6.34375 2.335938 -5.539062 2.640625 -4.75 C 2.953125 -3.957031 3.382812 -3.25 3.9375 -2.625 C 4.5 -2.007812 5.175781 -1.507812 5.96875 -1.125 C 6.757812 -0.738281 7.640625 -0.546875 8.609375 -0.546875 C 8.878906 -0.546875 9.207031 -0.578125 9.59375 -0.640625 C 9.988281 -0.703125 10.378906 -0.847656 10.765625 -1.078125 L 10.765625 -6 C 10.765625 -6.101562 10.75 -6.21875 10.71875 -6.34375 C 10.695312 -6.46875 10.65625 -6.582031 10.59375 -6.6875 C 10.53125 -6.800781 10.457031 -6.894531 10.375 -6.96875 C 10.289062 -7.050781 10.191406 -7.09375 10.078125 -7.09375 L 9.96875 -7.09375 Z M 9.96875 -7.3125 "/></g></g></g><path stroke-linecap="butt" transform="matrix(0.75, 0, 0, 0.75, 0.847843, 143.569795)" fill="none" stroke-linejoin="miter" d="M -0.000249176 2.50069 L 499.999784 2.50069 " stroke="#ffbd4a" stroke-width="5" stroke-opacity="1" stroke-miterlimit="4"/><path stroke-linecap="butt" transform="matrix(0.75, 0, 0, 0.75, 0.0000045, 224.288834)" fill="none" stroke-linejoin="miter" d="M -0.000006 2.500305 L 500.000027 2.500305 " stroke="#ffbd4a" stroke-width="5" stroke-opacity="1" stroke-miterlimit="4"/></svg>