<svg xmlns="http://www.w3.org/2000/svg" xmlns:xlink="http://www.w3.org/1999/xlink" width="200" zoomAndPan="magnify" viewBox="0 0 150 149.999998" height="200" preserveAspectRatio="xMidYMid meet" version="1.0"><defs><g/></defs><path stroke-linecap="butt" transform="matrix(0.75, 0, 0, 0.75, 0.00000125, 91.795895)" fill="none" stroke-linejoin="miter" d="M -0.00000166667 0.00130661 L 200.00001 0.00130661 " stroke="#febd4b" stroke-width="2" stroke-opacity="1" stroke-miterlimit="4"/><path stroke-linecap="butt" transform="matrix(0.75, 0, 0, 0.75, 0.00000125, 44.188334)" fill="none" stroke-linejoin="miter" d="M -0.00000166667 -0.00111176 L 200.00001 -0.00111176 " stroke="#febd4b" stroke-width="2" stroke-opacity="1" stroke-miterlimit="4"/><g fill="#ffffff" fill-opacity="1"><g transform="translate(30.331323, 72.871375)"><g><path d="M 7.96875 -5.28125 L 7.859375 -4.765625 L 9.609375 -4.765625 L 8.90625 -1.71875 C 8.070312 -0.9375 7.101562 -0.5 6 -0.40625 C 5.882812 -0.394531 5.773438 -0.390625 5.671875 -0.390625 C 3.085938 -0.421875 2.207031 -2.242188 3.03125 -5.859375 C 3.75 -8.960938 5.101562 -10.757812 7.09375 -11.25 C 7.425781 -11.332031 7.773438 -11.375 8.140625 -11.375 C 9.484375 -11.375 10.367188 -11 10.796875 -10.25 C 11.078125 -9.75 11.25 -8.957031 11.3125 -7.875 L 11.8125 -7.875 L 12.59375 -11.65625 L 10.796875 -11.3125 C 10.085938 -11.71875 9.269531 -11.921875 8.34375 -11.921875 C 6.78125 -11.921875 5.316406 -11.40625 3.953125 -10.375 C 2.460938 -9.238281 1.507812 -7.757812 1.09375 -5.9375 C 0.613281 -3.851562 0.976562 -2.226562 2.1875 -1.0625 C 3.070312 -0.21875 4.1875 0.203125 5.53125 0.203125 C 6.507812 0.203125 7.445312 -0.015625 8.34375 -0.453125 C 8.457031 -0.503906 8.554688 -0.554688 8.640625 -0.609375 L 10.15625 0 L 11.25 -4.765625 L 12.71875 -4.765625 L 12.828125 -5.28125 Z M 7.96875 -5.28125 "/></g></g></g><g fill="#ffffff" fill-opacity="1"><g transform="translate(43.880715, 72.871375)"><g><path d="M 4.234375 0 L 4.359375 -0.515625 L 2.8125 -0.515625 L 3.921875 -5.375 L 5.78125 -5.375 L 7.671875 0 L 10.625 0 C 10.6875 -0.289062 10.644531 -0.453125 10.5 -0.484375 C 10.4375 -0.503906 10.359375 -0.515625 10.265625 -0.515625 L 9.53125 -0.515625 L 7.53125 -5.546875 C 8.851562 -5.847656 9.851562 -6.492188 10.53125 -7.484375 C 10.789062 -7.867188 10.960938 -8.265625 11.046875 -8.671875 C 11.285156 -9.648438 11.046875 -10.429688 10.328125 -11.015625 C 9.742188 -11.484375 8.941406 -11.71875 7.921875 -11.71875 L 2.140625 -11.71875 L 2.03125 -11.21875 L 3.59375 -11.21875 L 1.125 -0.515625 L -0.4375 -0.515625 L -0.546875 0 Z M 7.21875 -11.21875 C 8.34375 -11.21875 9.015625 -10.757812 9.234375 -9.84375 C 9.316406 -9.46875 9.3125 -9.070312 9.21875 -8.65625 C 9 -7.71875 8.503906 -6.988281 7.734375 -6.46875 C 7.210938 -6.113281 6.660156 -5.9375 6.078125 -5.9375 L 4.0625 -5.9375 L 5.265625 -11.21875 Z M 7.21875 -11.21875 "/></g></g></g><g fill="#ffffff" fill-opacity="1"><g transform="translate(55.82917, 72.871375)"><g><path d="M 4.234375 0 C 4.296875 -0.289062 4.234375 -0.453125 4.046875 -0.484375 C 3.972656 -0.503906 3.90625 -0.515625 3.84375 -0.515625 L 2.8125 -0.515625 L 5.265625 -11.21875 L 6.8125 -11.21875 L 6.9375 -11.71875 L 2.140625 -11.71875 L 2.03125 -11.21875 L 3.59375 -11.21875 L 1.125 -0.515625 L -0.4375 -0.515625 L -0.546875 0 Z M 4.234375 0 "/></g></g></g><g fill="#ffffff" fill-opacity="1"><g transform="translate(62.174347, 72.871375)"><g><path d="M 10.453125 -8.203125 L 11.15625 -11.71875 L 2.140625 -11.71875 L 2.03125 -11.21875 L 3.59375 -11.21875 L 1.125 -0.515625 L -0.4375 -0.515625 L -0.546875 0 L 8.453125 0 L 9.359375 -3.515625 L 8.96875 -3.515625 L 8.46875 -2.59375 C 7.894531 -1.488281 7.265625 -0.828125 6.578125 -0.609375 C 6.367188 -0.546875 6.15625 -0.515625 5.9375 -0.515625 L 2.8125 -0.515625 L 4.015625 -5.765625 L 8.046875 -5.765625 L 8.1875 -6.328125 L 4.15625 -6.328125 L 5.265625 -11.21875 L 8.390625 -11.21875 C 9.328125 -11.21875 9.859375 -10.582031 9.984375 -9.3125 C 9.984375 -9.238281 9.988281 -9.175781 10 -9.125 L 10.0625 -8.203125 Z M 10.453125 -8.203125 "/></g></g></g><g fill="#ffffff" fill-opacity="1"><g transform="translate(73.029479, 72.871375)"><g><path d="M 10.640625 -9.0625 C 10.859375 -10.050781 10.5625 -10.785156 9.75 -11.265625 C 9.195312 -11.566406 8.492188 -11.71875 7.640625 -11.71875 L 2.140625 -11.71875 L 2.03125 -11.21875 L 3.59375 -11.21875 L 1.125 -0.515625 L -0.4375 -0.515625 L -0.546875 0 L 5 0 C 6.675781 0 8.03125 -0.535156 9.0625 -1.609375 C 9.59375 -2.160156 9.929688 -2.769531 10.078125 -3.4375 C 10.328125 -4.476562 10.050781 -5.285156 9.25 -5.859375 C 8.875 -6.109375 8.421875 -6.285156 7.890625 -6.390625 C 8.898438 -6.742188 9.679688 -7.335938 10.234375 -8.171875 C 10.441406 -8.484375 10.578125 -8.78125 10.640625 -9.0625 Z M 7.046875 -11.21875 C 8.390625 -11.21875 9.015625 -10.625 8.921875 -9.4375 C 8.910156 -9.269531 8.882812 -9.09375 8.84375 -8.90625 C 8.644531 -8.0625 8.164062 -7.425781 7.40625 -7 C 6.957031 -6.75 6.472656 -6.625 5.953125 -6.625 L 4.21875 -6.625 L 5.265625 -11.21875 Z M 6.203125 -6.09375 C 7.390625 -6.09375 8.066406 -5.59375 8.234375 -4.59375 C 8.316406 -4.226562 8.304688 -3.832031 8.203125 -3.40625 C 7.960938 -2.394531 7.453125 -1.613281 6.671875 -1.0625 C 6.171875 -0.695312 5.617188 -0.515625 5.015625 -0.515625 L 2.8125 -0.515625 L 4.09375 -6.09375 Z M 6.203125 -6.09375 "/></g></g></g><g fill="#ffffff" fill-opacity="1"><g transform="translate(84.528891, 72.871375)"><g><path d="M 8 0 L 9 -3.90625 L 8.609375 -3.90625 L 7.96875 -2.59375 C 7.382812 -1.394531 6.707031 -0.710938 5.9375 -0.546875 C 5.78125 -0.523438 5.628906 -0.515625 5.484375 -0.515625 L 2.8125 -0.515625 L 5.265625 -11.21875 L 6.90625 -11.21875 L 7.03125 -11.71875 L 2.140625 -11.71875 L 2.03125 -11.21875 L 3.59375 -11.21875 L 1.125 -0.515625 L -0.4375 -0.515625 L -0.546875 0 Z M 8 0 "/></g></g></g><g fill="#ffffff" fill-opacity="1"><g transform="translate(94.154035, 72.871375)"><g><path d="M 10.453125 -8.203125 L 11.15625 -11.71875 L 2.140625 -11.71875 L 2.03125 -11.21875 L 3.59375 -11.21875 L 1.125 -0.515625 L -0.4375 -0.515625 L -0.546875 0 L 8.453125 0 L 9.359375 -3.515625 L 8.96875 -3.515625 L 8.46875 -2.59375 C 7.894531 -1.488281 7.265625 -0.828125 6.578125 -0.609375 C 6.367188 -0.546875 6.15625 -0.515625 5.9375 -0.515625 L 2.8125 -0.515625 L 4.015625 -5.765625 L 8.046875 -5.765625 L 8.1875 -6.328125 L 4.15625 -6.328125 L 5.265625 -11.21875 L 8.390625 -11.21875 C 9.328125 -11.21875 9.859375 -10.582031 9.984375 -9.3125 C 9.984375 -9.238281 9.988281 -9.175781 10 -9.125 L 10.0625 -8.203125 Z M 10.453125 -8.203125 "/></g></g></g><g fill="#ffffff" fill-opacity="1"><g transform="translate(105.009168, 72.871375)"><g><path d="M 4.234375 0 L 4.359375 -0.515625 L 2.8125 -0.515625 L 3.921875 -5.375 L 5.78125 -5.375 L 7.671875 0 L 10.625 0 C 10.6875 -0.289062 10.644531 -0.453125 10.5 -0.484375 C 10.4375 -0.503906 10.359375 -0.515625 10.265625 -0.515625 L 9.53125 -0.515625 L 7.53125 -5.546875 C 8.851562 -5.847656 9.851562 -6.492188 10.53125 -7.484375 C 10.789062 -7.867188 10.960938 -8.265625 11.046875 -8.671875 C 11.285156 -9.648438 11.046875 -10.429688 10.328125 -11.015625 C 9.742188 -11.484375 8.941406 -11.71875 7.921875 -11.71875 L 2.140625 -11.71875 L 2.03125 -11.21875 L 3.59375 -11.21875 L 1.125 -0.515625 L -0.4375 -0.515625 L -0.546875 0 Z M 7.21875 -11.21875 C 8.34375 -11.21875 9.015625 -10.757812 9.234375 -9.84375 C 9.316406 -9.46875 9.3125 -9.070312 9.21875 -8.65625 C 9 -7.71875 8.503906 -6.988281 7.734375 -6.46875 C 7.210938 -6.113281 6.660156 -5.9375 6.078125 -5.9375 L 4.0625 -5.9375 L 5.265625 -11.21875 Z M 7.21875 -11.21875 "/></g></g></g><g fill="#ffffff" fill-opacity="1"><g transform="translate(39.535864, 108.228351)"><g><path d="M 3.3125 0 L 3.3125 -0.296875 L 2.390625 -0.296875 L 2.390625 -3.203125 L 3.5 -3.203125 L 5.359375 0 L 7.125 0 C 7.125 -0.164062 7.078125 -0.265625 6.984375 -0.296875 C 6.941406 -0.296875 6.894531 -0.296875 6.84375 -0.296875 L 6.40625 -0.296875 L 4.53125 -3.3125 C 5.269531 -3.488281 5.773438 -3.867188 6.046875 -4.453125 C 6.140625 -4.691406 6.1875 -4.929688 6.1875 -5.171875 C 6.1875 -5.753906 5.9375 -6.21875 5.4375 -6.5625 C 5.019531 -6.84375 4.507812 -6.984375 3.90625 -6.984375 L 0.46875 -6.984375 L 0.46875 -6.6875 L 1.390625 -6.6875 L 1.390625 -0.296875 L 0.46875 -0.296875 L 0.46875 0 Z M 3.5625 -6.6875 C 4.226562 -6.6875 4.691406 -6.414062 4.953125 -5.875 C 5.046875 -5.644531 5.09375 -5.40625 5.09375 -5.15625 C 5.09375 -4.59375 4.898438 -4.160156 4.515625 -3.859375 C 4.253906 -3.648438 3.945312 -3.546875 3.59375 -3.546875 L 2.390625 -3.546875 L 2.390625 -6.6875 Z M 3.5625 -6.6875 "/></g></g></g><g fill="#ffffff" fill-opacity="1"><g transform="translate(46.651709, 108.228351)"><g><path d="M 5.890625 -4.890625 L 5.828125 -6.984375 L 0.46875 -6.984375 L 0.46875 -6.6875 L 1.390625 -6.6875 L 1.390625 -0.296875 L 0.46875 -0.296875 L 0.46875 0 L 5.828125 0 L 5.890625 -2.09375 L 5.65625 -2.09375 L 5.5 -1.546875 C 5.300781 -0.890625 5.015625 -0.492188 4.640625 -0.359375 C 4.515625 -0.316406 4.390625 -0.296875 4.265625 -0.296875 L 2.390625 -0.296875 L 2.390625 -3.4375 L 4.796875 -3.4375 L 4.796875 -3.765625 L 2.390625 -3.765625 L 2.390625 -6.6875 L 4.265625 -6.6875 C 4.816406 -6.6875 5.210938 -6.304688 5.453125 -5.546875 C 5.472656 -5.503906 5.488281 -5.46875 5.5 -5.4375 L 5.65625 -4.890625 Z M 5.890625 -4.890625 "/></g></g></g><g fill="#ffffff" fill-opacity="1"><g transform="translate(53.11643, 108.228351)"><g><path d="M 9.09375 -6.984375 L 7.234375 -6.984375 L 4.71875 -1.296875 L 2.015625 -6.984375 L 0.34375 -6.984375 L 0.34375 -6.6875 L 1.28125 -6.6875 L 1.28125 -0.296875 L 0.34375 -0.296875 L 0.34375 0 L 2.671875 0 C 2.671875 -0.164062 2.609375 -0.265625 2.484375 -0.296875 C 2.453125 -0.296875 2.414062 -0.296875 2.375 -0.296875 L 1.75 -0.296875 L 1.75 -5.3125 L 4.296875 0.0625 L 4.546875 0.0625 L 7.234375 -5.9375 L 7.234375 -0.296875 L 6.296875 -0.296875 L 6.296875 0 L 9.09375 0 C 9.09375 -0.164062 9.03125 -0.265625 8.90625 -0.296875 C 8.863281 -0.296875 8.828125 -0.296875 8.796875 -0.296875 L 8.15625 -0.296875 L 8.15625 -6.6875 L 9.09375 -6.6875 Z M 9.09375 -6.984375 "/></g></g></g><g fill="#ffffff" fill-opacity="1"><g transform="translate(62.546087, 108.228351)"><g><path d="M 4.140625 -7.109375 C 3.203125 -7.109375 2.398438 -6.800781 1.734375 -6.1875 C 1.003906 -5.507812 0.640625 -4.628906 0.640625 -3.546875 C 0.640625 -2.285156 1.070312 -1.3125 1.9375 -0.625 C 2.5625 -0.132812 3.28125 0.109375 4.09375 0.109375 C 5.007812 0.109375 5.800781 -0.195312 6.46875 -0.8125 C 7.195312 -1.5 7.5625 -2.394531 7.5625 -3.5 C 7.5625 -4.769531 7.117188 -5.742188 6.234375 -6.421875 C 5.628906 -6.878906 4.929688 -7.109375 4.140625 -7.109375 Z M 4.140625 -0.203125 C 3.003906 -0.203125 2.28125 -0.804688 1.96875 -2.015625 C 1.851562 -2.441406 1.796875 -2.9375 1.796875 -3.5 C 1.796875 -5.34375 2.359375 -6.410156 3.484375 -6.703125 C 3.671875 -6.753906 3.875 -6.78125 4.09375 -6.78125 C 5.625 -6.757812 6.394531 -5.679688 6.40625 -3.546875 C 6.40625 -1.847656 5.9375 -0.796875 5 -0.390625 C 4.726562 -0.265625 4.441406 -0.203125 4.140625 -0.203125 Z M 4.140625 -0.203125 "/></g></g></g><g fill="#ffffff" fill-opacity="1"><g transform="translate(70.74326, 108.228351)"><g><path d="M 0.46875 -6.984375 L 0.46875 -6.6875 L 1.390625 -6.6875 L 1.390625 -0.296875 L 0.46875 -0.296875 L 0.46875 0 L 3.671875 0 C 4.722656 0 5.585938 -0.328125 6.265625 -0.984375 C 6.929688 -1.617188 7.265625 -2.457031 7.265625 -3.5 C 7.265625 -4.832031 6.773438 -5.804688 5.796875 -6.421875 C 5.203125 -6.796875 4.507812 -6.984375 3.71875 -6.984375 Z M 3.671875 -6.6875 C 4.898438 -6.6875 5.664062 -6.125 5.96875 -5 C 6.082031 -4.59375 6.140625 -4.109375 6.140625 -3.546875 C 6.140625 -1.609375 5.484375 -0.539062 4.171875 -0.34375 C 4.023438 -0.3125 3.875 -0.296875 3.71875 -0.296875 L 2.390625 -0.296875 L 2.390625 -6.6875 Z M 3.671875 -6.6875 "/></g></g></g><g fill="#ffffff" fill-opacity="1"><g transform="translate(78.638127, 108.228351)"><g><path d="M 5.890625 -4.890625 L 5.828125 -6.984375 L 0.46875 -6.984375 L 0.46875 -6.6875 L 1.390625 -6.6875 L 1.390625 -0.296875 L 0.46875 -0.296875 L 0.46875 0 L 5.828125 0 L 5.890625 -2.09375 L 5.65625 -2.09375 L 5.5 -1.546875 C 5.300781 -0.890625 5.015625 -0.492188 4.640625 -0.359375 C 4.515625 -0.316406 4.390625 -0.296875 4.265625 -0.296875 L 2.390625 -0.296875 L 2.390625 -3.4375 L 4.796875 -3.4375 L 4.796875 -3.765625 L 2.390625 -3.765625 L 2.390625 -6.6875 L 4.265625 -6.6875 C 4.816406 -6.6875 5.210938 -6.304688 5.453125 -5.546875 C 5.472656 -5.503906 5.488281 -5.46875 5.5 -5.4375 L 5.65625 -4.890625 Z M 5.890625 -4.890625 "/></g></g></g><g fill="#ffffff" fill-opacity="1"><g transform="translate(85.102848, 108.228351)"><g><path d="M 5.5625 0 L 5.625 -2.328125 L 5.390625 -2.328125 L 5.1875 -1.546875 C 5 -0.835938 4.691406 -0.429688 4.265625 -0.328125 C 4.171875 -0.304688 4.082031 -0.296875 4 -0.296875 L 2.390625 -0.296875 L 2.390625 -6.6875 L 3.375 -6.6875 L 3.375 -6.984375 L 0.46875 -6.984375 L 0.46875 -6.6875 L 1.390625 -6.6875 L 1.390625 -0.296875 L 0.46875 -0.296875 L 0.46875 0 Z M 5.5625 0 "/></g></g></g><g fill="#ffffff" fill-opacity="1"><g transform="translate(90.835056, 108.228351)"><g><path d="M 3.3125 0 C 3.3125 -0.164062 3.25 -0.265625 3.125 -0.296875 C 3.09375 -0.296875 3.054688 -0.296875 3.015625 -0.296875 L 2.390625 -0.296875 L 2.390625 -6.6875 L 3.3125 -6.6875 L 3.3125 -6.984375 L 0.46875 -6.984375 L 0.46875 -6.6875 L 1.390625 -6.6875 L 1.390625 -0.296875 L 0.46875 -0.296875 L 0.46875 0 Z M 3.3125 0 "/></g></g></g><g fill="#ffffff" fill-opacity="1"><g transform="translate(94.613895, 108.228351)"><g><path d="M 5.28125 -6.6875 L 6.28125 -6.6875 L 6.28125 -1.46875 L 1.84375 -6.984375 L 0.234375 -6.984375 L 0.234375 -6.6875 L 1.171875 -6.6875 L 1.171875 -0.296875 L 0.234375 -0.296875 L 0.234375 0 L 2.625 0 C 2.625 -0.164062 2.5625 -0.265625 2.4375 -0.296875 C 2.394531 -0.296875 2.351562 -0.296875 2.3125 -0.296875 L 1.625 -0.296875 L 1.625 -5.6875 L 6.203125 0.0625 L 6.734375 -0.0625 L 6.734375 -6.6875 L 7.671875 -6.6875 L 7.671875 -6.984375 L 5.28125 -6.984375 Z M 5.28125 -6.6875 "/></g></g></g><g fill="#ffffff" fill-opacity="1"><g transform="translate(102.392489, 108.228351)"><g><path d="M 4.828125 -3.140625 L 4.828125 -2.84375 L 5.875 -2.84375 L 5.875 -1.03125 C 5.488281 -0.5625 4.96875 -0.300781 4.3125 -0.25 C 4.25 -0.238281 4.191406 -0.234375 4.140625 -0.234375 C 2.585938 -0.242188 1.804688 -1.332031 1.796875 -3.5 C 1.796875 -5.34375 2.359375 -6.410156 3.484375 -6.703125 C 3.671875 -6.753906 3.875 -6.78125 4.09375 -6.78125 C 4.894531 -6.78125 5.472656 -6.554688 5.828125 -6.109375 C 6.066406 -5.804688 6.28125 -5.332031 6.46875 -4.6875 L 6.765625 -4.6875 L 6.703125 -6.953125 L 5.6875 -6.734375 C 5.195312 -6.984375 4.679688 -7.109375 4.140625 -7.109375 C 3.203125 -7.109375 2.398438 -6.800781 1.734375 -6.1875 C 1.003906 -5.507812 0.640625 -4.628906 0.640625 -3.546875 C 0.640625 -2.296875 1.082031 -1.320312 1.96875 -0.625 C 2.613281 -0.132812 3.335938 0.109375 4.140625 0.109375 C 4.710938 0.109375 5.238281 -0.015625 5.71875 -0.265625 C 5.78125 -0.296875 5.832031 -0.328125 5.875 -0.359375 L 6.859375 0 L 6.859375 -2.84375 L 7.734375 -2.84375 L 7.734375 -3.140625 Z M 4.828125 -3.140625 "/></g></g></g></svg>